<svg width="20" height="20" viewBox="0 0 20 20" fill="none" xmlns="http://www.w3.org/2000/svg">
<path fill-rule="evenodd" clip-rule="evenodd" d="M15.0015 5C15.0015 7.76142 12.7623 10 10 10C7.23777 10 4.99851 7.76142 4.99851 5C4.99851 2.23858 7.23777 0 10 0C12.7623 0 15.0015 2.23858 15.0015 5ZM13.001 4.99999C13.001 3.34314 11.6575 1.99999 10.0001 1.99999C8.34275 1.99999 6.99919 3.34314 6.99919 4.99999C6.99919 6.65684 8.34275 7.99999 10.0001 7.99999C11.6575 7.99999 13.001 6.65684 13.001 4.99999ZM19.893 18.55L18.0024 14.76C17.1545 13.0683 15.4239 12.0001 13.5311 12H6.46893C4.57614 12.0001 2.84555 13.0683 1.99758 14.76L0.107007 18.55C-0.0490094 18.8595 -0.0335807 19.2277 0.147782 19.5231C0.329146 19.8185 0.650578 19.9989 0.997276 20H19.0027C19.3494 19.9989 19.6709 19.8185 19.8522 19.5231C20.0336 19.2277 20.049 18.8595 19.893 18.55ZM3.78818 15.66L2.61782 18H17.3823L16.2119 15.66C15.7046 14.644 14.667 14.0015 13.5311 14H6.46899C5.33315 14.0015 4.29552 14.644 3.78818 15.66Z" fill="#F63D3D"/>
</svg>
