<svg width="157" height="80" viewBox="0 0 157 80" fill="none" xmlns="http://www.w3.org/2000/svg">
<g filter="url(#filter0_d_15_109)">
<path d="M53 22.024C53 18.1984 58.6289 10.4402 58 6.66667C56.7151 -1.04283 58.468 -0.827481 60.4755 1.20306C63.4391 4.20057 67.0791 6.66667 71.2943 6.66667H84.8246C88.7 6.66667 92.1789 4.62918 94.9766 1.94748C97.2927 -0.272513 99.4132 -0.985953 97.5 6.66667C96.4232 10.9737 103 17.3727 103 21.8123V45.3155C103 51.5846 97.9179 56.6667 91.6488 56.6667H62.5491C57.2753 56.6667 53 52.3914 53 47.1175V22.024Z" fill="#0D0D0D"/>
</g>
<path fill-rule="evenodd" clip-rule="evenodd" d="M72.3354 18.1089C68.9622 18.993 67.6621 24.7179 70.0964 27.9684C72.8567 31.6541 77.5464 29.0626 77.5464 23.8516C77.5464 20.1069 75.0804 17.3893 72.3354 18.1089ZM81.6329 18.081C77.9158 19.0989 76.7955 25.3691 79.7774 28.4646C82.9533 31.7616 87.4657 28.0216 86.7262 22.7052C86.299 19.6334 83.9039 17.459 81.6329 18.081ZM65.7019 26.7567C62.1737 27.7056 62.0717 34.5372 65.5694 35.6327C67.4645 36.2262 69.2459 34.852 69.7514 32.4066C70.4289 29.1289 68.2395 26.0742 65.7019 26.7567ZM88.8419 26.7579C86.4853 27.3912 85.3732 31.0755 86.7171 33.7968C88.1449 36.6878 91.6502 36.3096 92.7093 33.1503C93.8741 29.6754 91.652 26.0026 88.8419 26.7579ZM76.3594 30.4773C73.6581 30.8197 71.2128 32.3554 70.0223 34.4571C69.8854 34.6987 69.6639 35.0415 69.5301 35.2188C67.293 38.1819 67.5789 42.3778 70.1028 43.6247C71.2586 44.1957 72.1794 43.974 74.5472 42.5549C76.2595 41.5286 76.5161 41.4201 77.3125 41.3857C78.7814 41.3223 79.0813 41.4264 81.0175 42.6719C83.2039 44.0782 84.1206 44.3035 85.2931 43.7225C87.7903 42.4851 88.2044 38.4209 86.1448 35.3652C85.9927 35.1396 85.8082 34.8364 85.7345 34.6914C84.2465 31.7599 80.2855 29.9794 76.3594 30.4773Z" fill="white"/>
<path d="M17.0256 76.24C15.9056 76.24 14.8323 76.0933 13.8056 75.8C12.779 75.4933 11.9523 75.1 11.3256 74.62L12.4256 72.18C13.0256 72.6067 13.7323 72.96 14.5456 73.24C15.3723 73.5067 16.2056 73.64 17.0456 73.64C17.6856 73.64 18.199 73.58 18.5856 73.46C18.9856 73.3267 19.279 73.1467 19.4656 72.92C19.6523 72.6933 19.7456 72.4333 19.7456 72.14C19.7456 71.7667 19.599 71.4733 19.3056 71.26C19.0123 71.0333 18.6256 70.8533 18.1456 70.72C17.6656 70.5733 17.1323 70.44 16.5456 70.32C15.9723 70.1867 15.3923 70.0267 14.8056 69.84C14.2323 69.6533 13.7056 69.4133 13.2256 69.12C12.7456 68.8267 12.3523 68.44 12.0456 67.96C11.7523 67.48 11.6056 66.8667 11.6056 66.12C11.6056 65.32 11.819 64.5933 12.2456 63.94C12.6856 63.2733 13.339 62.7467 14.2056 62.36C15.0856 61.96 16.1856 61.76 17.5056 61.76C18.3856 61.76 19.2523 61.8667 20.1056 62.08C20.959 62.28 21.7123 62.5867 22.3656 63L21.3656 65.46C20.7123 65.0867 20.059 64.8133 19.4056 64.64C18.7523 64.4533 18.1123 64.36 17.4856 64.36C16.859 64.36 16.3456 64.4333 15.9456 64.58C15.5456 64.7267 15.259 64.92 15.0856 65.16C14.9123 65.3867 14.8256 65.6533 14.8256 65.96C14.8256 66.32 14.9723 66.6133 15.2656 66.84C15.559 67.0533 15.9456 67.2267 16.4256 67.36C16.9056 67.4933 17.4323 67.6267 18.0056 67.76C18.5923 67.8933 19.1723 68.0467 19.7456 68.22C20.3323 68.3933 20.8656 68.6267 21.3456 68.92C21.8256 69.2133 22.2123 69.6 22.5056 70.08C22.8123 70.56 22.9656 71.1667 22.9656 71.9C22.9656 72.6867 22.7456 73.4067 22.3056 74.06C21.8656 74.7133 21.2056 75.24 20.3256 75.64C19.459 76.04 18.359 76.24 17.0256 76.24ZM29.4995 76.16C28.6062 76.16 27.8062 75.9867 27.0995 75.64C26.4062 75.2933 25.8662 74.7667 25.4795 74.06C25.0929 73.34 24.8995 72.4267 24.8995 71.32V65.24H28.0195V70.86C28.0195 71.7533 28.2062 72.4133 28.5795 72.84C28.9662 73.2533 29.5062 73.46 30.1995 73.46C30.6795 73.46 31.1062 73.36 31.4795 73.16C31.8529 72.9467 32.1462 72.6267 32.3595 72.2C32.5729 71.76 32.6795 71.2133 32.6795 70.56V65.24H35.7995V76H32.8395V73.04L33.3795 73.9C33.0195 74.6467 32.4862 75.2133 31.7795 75.6C31.0862 75.9733 30.3262 76.16 29.4995 76.16ZM45.05 76.16C44.1433 76.16 43.35 75.96 42.67 75.56C41.99 75.16 41.4567 74.5533 41.07 73.74C40.6967 72.9133 40.51 71.8733 40.51 70.62C40.51 69.3533 40.69 68.3133 41.05 67.5C41.41 66.6867 41.93 66.08 42.61 65.68C43.29 65.28 44.1033 65.08 45.05 65.08C46.0633 65.08 46.97 65.3133 47.77 65.78C48.5833 66.2333 49.2233 66.8733 49.69 67.7C50.17 68.5267 50.41 69.5 50.41 70.62C50.41 71.7533 50.17 72.7333 49.69 73.56C49.2233 74.3867 48.5833 75.0267 47.77 75.48C46.97 75.9333 46.0633 76.16 45.05 76.16ZM38.69 79.88V65.24H41.67V67.44L41.61 70.64L41.81 73.82V79.88H38.69ZM44.51 73.6C45.03 73.6 45.49 73.48 45.89 73.24C46.3033 73 46.63 72.66 46.87 72.22C47.1233 71.7667 47.25 71.2333 47.25 70.62C47.25 69.9933 47.1233 69.46 46.87 69.02C46.63 68.58 46.3033 68.24 45.89 68C45.49 67.76 45.03 67.64 44.51 67.64C43.99 67.64 43.5233 67.76 43.11 68C42.6967 68.24 42.37 68.58 42.13 69.02C41.89 69.46 41.77 69.9933 41.77 70.62C41.77 71.2333 41.89 71.7667 42.13 72.22C42.37 72.66 42.6967 73 43.11 73.24C43.5233 73.48 43.99 73.6 44.51 73.6ZM57.8386 76.16C56.6119 76.16 55.5319 75.92 54.5986 75.44C53.6786 74.96 52.9653 74.3067 52.4586 73.48C51.9519 72.64 51.6986 71.6867 51.6986 70.62C51.6986 69.54 51.9453 68.5867 52.4386 67.76C52.9453 66.92 53.6319 66.2667 54.4986 65.8C55.3653 65.32 56.3453 65.08 57.4386 65.08C58.4919 65.08 59.4386 65.3067 60.2786 65.76C61.1319 66.2 61.8053 66.84 62.2986 67.68C62.7919 68.5067 63.0386 69.5 63.0386 70.66C63.0386 70.78 63.0319 70.92 63.0186 71.08C63.0053 71.2267 62.9919 71.3667 62.9786 71.5H54.2386V69.68H61.3386L60.1386 70.22C60.1386 69.66 60.0253 69.1733 59.7986 68.76C59.5719 68.3467 59.2586 68.0267 58.8586 67.8C58.4586 67.56 57.9919 67.44 57.4586 67.44C56.9253 67.44 56.4519 67.56 56.0386 67.8C55.6386 68.0267 55.3253 68.3533 55.0986 68.78C54.8719 69.1933 54.7586 69.6867 54.7586 70.26V70.74C54.7586 71.3267 54.8853 71.8467 55.1386 72.3C55.4053 72.74 55.7719 73.08 56.2386 73.32C56.7186 73.5467 57.2786 73.66 57.9186 73.66C58.4919 73.66 58.9919 73.5733 59.4186 73.4C59.8586 73.2267 60.2586 72.9667 60.6186 72.62L62.2786 74.42C61.7853 74.98 61.1653 75.4133 60.4186 75.72C59.6719 76.0133 58.8119 76.16 57.8386 76.16ZM65.1158 76V65.24H68.0958V68.28L67.6758 67.4C67.9958 66.64 68.5091 66.0667 69.2158 65.68C69.9224 65.28 70.7824 65.08 71.7958 65.08V67.96C71.6624 67.9467 71.5424 67.94 71.4358 67.94C71.3291 67.9267 71.2158 67.92 71.0958 67.92C70.2424 67.92 69.5491 68.1667 69.0158 68.66C68.4958 69.14 68.2358 69.8933 68.2358 70.92V76H65.1158ZM73.8319 76V62H76.5119L82.4719 71.88H81.0519L86.9119 62H89.5719L89.6119 76H86.5719L86.5519 66.66H87.1119L82.4319 74.52H80.9719L76.1919 66.66H76.8719V76H73.8319ZM99.3134 76V73.9L99.1134 73.44V69.68C99.1134 69.0133 98.9068 68.4933 98.4934 68.12C98.0934 67.7467 97.4734 67.56 96.6334 67.56C96.0601 67.56 95.4934 67.6533 94.9334 67.84C94.3868 68.0133 93.9201 68.2533 93.5334 68.56L92.4134 66.38C93.0001 65.9667 93.7068 65.6467 94.5334 65.42C95.3601 65.1933 96.2001 65.08 97.0534 65.08C98.6934 65.08 99.9668 65.4667 100.873 66.24C101.78 67.0133 102.233 68.22 102.233 69.86V76H99.3134ZM96.0334 76.16C95.1934 76.16 94.4734 76.02 93.8734 75.74C93.2734 75.4467 92.8134 75.0533 92.4934 74.56C92.1734 74.0667 92.0134 73.5133 92.0134 72.9C92.0134 72.26 92.1668 71.7 92.4734 71.22C92.7934 70.74 93.2934 70.3667 93.9734 70.1C94.6534 69.82 95.5401 69.68 96.6334 69.68H99.4934V71.5H96.9734C96.2401 71.5 95.7334 71.62 95.4534 71.86C95.1868 72.1 95.0534 72.4 95.0534 72.76C95.0534 73.16 95.2068 73.48 95.5134 73.72C95.8334 73.9467 96.2668 74.06 96.8134 74.06C97.3334 74.06 97.8001 73.94 98.2134 73.7C98.6268 73.4467 98.9268 73.08 99.1134 72.6L99.5934 74.04C99.3668 74.7333 98.9534 75.26 98.3534 75.62C97.7534 75.98 96.9801 76.16 96.0334 76.16ZM105.057 76V65.24H108.037V68.28L107.617 67.4C107.937 66.64 108.451 66.0667 109.157 65.68C109.864 65.28 110.724 65.08 111.737 65.08V67.96C111.604 67.9467 111.484 67.94 111.377 67.94C111.271 67.9267 111.157 67.92 111.037 67.92C110.184 67.92 109.491 68.1667 108.957 68.66C108.437 69.14 108.177 69.8933 108.177 70.92V76H105.057ZM116.192 73.8L116.272 70L121.292 65.24H125.012L120.192 70.14L118.572 71.46L116.192 73.8ZM113.612 76V61.16H116.732V76H113.612ZM121.632 76L117.992 71.48L119.952 69.06L125.412 76H121.632ZM131.706 76.16C130.479 76.16 129.399 75.92 128.466 75.44C127.546 74.96 126.832 74.3067 126.326 73.48C125.819 72.64 125.566 71.6867 125.566 70.62C125.566 69.54 125.812 68.5867 126.306 67.76C126.812 66.92 127.499 66.2667 128.366 65.8C129.232 65.32 130.212 65.08 131.306 65.08C132.359 65.08 133.306 65.3067 134.146 65.76C134.999 66.2 135.672 66.84 136.166 67.68C136.659 68.5067 136.906 69.5 136.906 70.66C136.906 70.78 136.899 70.92 136.886 71.08C136.872 71.2267 136.859 71.3667 136.846 71.5H128.106V69.68H135.206L134.006 70.22C134.006 69.66 133.892 69.1733 133.666 68.76C133.439 68.3467 133.126 68.0267 132.726 67.8C132.326 67.56 131.859 67.44 131.326 67.44C130.792 67.44 130.319 67.56 129.906 67.8C129.506 68.0267 129.192 68.3533 128.966 68.78C128.739 69.1933 128.626 69.6867 128.626 70.26V70.74C128.626 71.3267 128.752 71.8467 129.006 72.3C129.272 72.74 129.639 73.08 130.106 73.32C130.586 73.5467 131.146 73.66 131.786 73.66C132.359 73.66 132.859 73.5733 133.286 73.4C133.726 73.2267 134.126 72.9667 134.486 72.62L136.146 74.42C135.652 74.98 135.032 75.4133 134.286 75.72C133.539 76.0133 132.679 76.16 131.706 76.16ZM143.383 76.16C142.116 76.16 141.13 75.84 140.423 75.2C139.716 74.5467 139.363 73.58 139.363 72.3V62.86H142.483V72.26C142.483 72.7133 142.603 73.0667 142.843 73.32C143.083 73.56 143.41 73.68 143.823 73.68C144.316 73.68 144.736 73.5467 145.083 73.28L145.923 75.48C145.603 75.7067 145.216 75.88 144.763 76C144.323 76.1067 143.863 76.16 143.383 76.16ZM137.703 67.88V65.48H145.163V67.88H137.703Z" fill="#0D0D0D"/>
<defs>
<filter id="filter0_d_15_109" x="53" y="0" width="50" height="56.6667" filterUnits="userSpaceOnUse" color-interpolation-filters="sRGB">
<feFlood flood-opacity="0" result="BackgroundImageFix"/>
<feColorMatrix in="SourceAlpha" type="matrix" values="0 0 0 0 0 0 0 0 0 0 0 0 0 0 0 0 0 0 127 0" result="hardAlpha"/>
<feOffset/>
<feComposite in2="hardAlpha" operator="out"/>
<feColorMatrix type="matrix" values="0 0 0 0 0 0 0 0 0 0 0 0 0 0 0 0 0 0 0.25 0"/>
<feBlend mode="normal" in2="BackgroundImageFix" result="effect1_dropShadow_15_109"/>
<feBlend mode="normal" in="SourceGraphic" in2="effect1_dropShadow_15_109" result="shape"/>
</filter>
</defs>
</svg>
