<svg width="19" height="19" viewBox="0 0 19 19" fill="none" xmlns="http://www.w3.org/2000/svg">
<path fill-rule="evenodd" clip-rule="evenodd" d="M14.6431 13.1474L18.8645 17.3747C19.053 17.5844 19.0437 17.9055 18.8434 18.1039L18.1047 18.8437C18.0056 18.9437 17.8707 19 17.73 19C17.5893 19 17.4544 18.9437 17.3553 18.8437L13.1339 14.6164C13.0172 14.4994 12.9112 14.372 12.8173 14.2359L12.0258 13.1791C10.7162 14.2263 9.08984 14.7965 7.41388 14.796C3.96034 14.808 0.959342 12.4224 0.187566 9.0515C-0.584209 5.68058 1.07921 2.22404 4.19304 0.728242C7.30686 -0.767556 11.0401 0.0965965 13.1825 2.8091C15.3249 5.5216 15.3047 9.35852 13.1339 12.0483L14.1893 12.7775C14.3541 12.8831 14.5063 13.0072 14.6431 13.1474ZM2.13727 7.39798C2.13727 10.3163 4.49977 12.6821 7.41405 12.6821C8.81355 12.6821 10.1557 12.1254 11.1453 11.1344C12.1349 10.1435 12.6908 8.79942 12.6908 7.39798C12.6908 4.47963 10.3283 2.11384 7.41405 2.11384C4.49977 2.11384 2.13727 4.47963 2.13727 7.39798Z" fill="#F63D3D"/>
</svg>
